<svg id="Layer_1" enable-background="new 0 0 479.999 479.999" height="512" viewBox="0 0 479.999 479.999" width="512" xmlns="http://www.w3.org/2000/svg"><ellipse cx="240.008" cy="431" fill="#cbe3fa" rx="91" ry="41"/><path d="m181.341 450.873c2.763 5.054-2.498 10.675-7.69 8.183-15.283-7.335-24.643-17.205-24.643-28.056 0-22.64 40.74-41 91-41 .27 0 .54.001.809.002 7.262.029 7.979 10.603.801 11.705-43.263 6.643-71.559 28.529-60.277 49.166z" fill="#eef7ff"/><path d="m240.348 8c-100.67-.18-182.34 81.37-182.34 182 0 89.85 65.1 164.49 150.71 179.32l16.27 44.32c5.13 13.98 24.91 13.98 30.04 0l16.27-44.32c85.61-14.83 150.71-89.47 150.71-179.32 0-100.76-80.9-181.81-181.66-182z" fill="#ff6d7a"/><path d="m88.008 200c0 49.69 19.908 94.728 52.187 127.57 5.242 5.333-1.858 13.591-7.884 9.161-45.061-33.126-74.303-86.512-74.303-146.731 0-100.943 82.155-182.607 183.113-181.997 7.414.045 8.234 10.901.909 12.043-85.533 13.339-154.022 87.273-154.022 179.954z" fill="#ff8c95"/><circle cx="240.008" cy="190" fill="#cbe3fa" r="137"/><path d="m133.008 200c0 35.045 13.161 67.018 34.808 91.246 5.134 5.746-2.388 13.952-8.607 9.403-34.296-25.088-56.493-65.734-56.198-111.549.485-75.469 62.753-136.84 138.376-136.093 7.721.076 8.742 11.151 1.178 12.702-61.462 12.603-109.557 66.943-109.557 134.291z" fill="#eef7ff"/><path d="m322.008 194c0 42.416-32.317 77.585-74 81.61-38.711 3.831-74.446-20.191-86.05-56.42-10.823-33.39.877-70.34 29.72-91.44 28.798-21.027 67.824-20.945 96.45-.14 20.776 15.104 33.88 39.336 33.88 66.39z" fill="#eef7ff"/><path d="m191.958 229.19c3.091 9.652 8.063 18.786 14.641 26.802 4.271 5.204-1.86 12.361-7.684 8.984-48.178-27.937-55.248-94.922-13.468-132.186 17.768-15.895 41.247-22.893 64.055-20.252 6.635.768 7.144 10.182.661 11.79-44.106 10.945-73.368 58.084-58.205 104.862z" fill="#fff"/><path d="m221.423 162.619c17.126-3.433 30.86-1.248 37.21.05 2.343.479 4.341 1.991 5.463 4.104 5.851 11.02 9.717 22.962 11.435 35.315.329 2.364-.402 4.745-1.997 6.52-4.442 4.941-14.849 15.062-30.3 21.871-2.055.906-4.406.9-6.463-.001-11.502-5.04-21.854-12.503-30.304-21.962-1.554-1.739-2.274-4.073-1.963-6.385.848-6.319 3.274-20.015 11.487-35.45 1.111-2.092 3.11-3.596 5.432-4.062z" fill="#585966"/><g><path d="m374.625 55.634c-35.489-35.558-83.184-55.634-134.62-55.634-104.389 0-189.997 84.426-189.997 190 0 91.599 65.125 168.91 152.767 186.352l14.704 40.046c7.686 20.934 37.354 20.987 45.059 0l5.968-16.254c35.447 5.456 54.503 19.616 54.503 30.857 0 7.396-8.202 15.508-21.939 21.697-33.482 15.087-88.645 15.084-122.121 0-13.738-6.189-21.939-14.301-21.939-21.697 0-7.333 7.697-15.104 21.118-21.322 4.009-1.857 5.753-6.613 3.896-10.622-1.857-4.008-6.611-5.752-10.622-3.896-40.484 18.757-41.017 53.205.976 72.125 59.946 27.008 166.633 9.16 166.633-36.285 0-21.4-25.682-39.347-64.891-46.141l4.693-12.782c1.522-4.147-.604-8.744-4.753-10.267-4.146-1.523-8.744.604-10.267 4.753l-16.272 44.32c-2.562 6.978-12.448 7.005-15.02-.001l-16.273-44.32c-.985-2.683-3.327-4.637-6.144-5.125-83.484-14.466-144.076-86.566-144.076-171.438 0-94.719 76.304-174.09 174.327-174 95.764.088 173.673 78.232 173.673 174 0 67.001-37.41 126.927-97.632 156.392-3.969 1.941-5.612 6.732-3.67 10.701 1.941 3.97 6.735 5.613 10.701 3.67 117.695-57.581 142.577-213.598 51.218-305.129z"/><path d="m119.866 237.08c-1.613-4.114-6.257-6.142-10.369-4.526-4.113 1.613-6.14 6.255-4.527 10.368 21.394 54.546 74.253 92.078 135.038 92.078 79.953 0 145-65.047 145-145s-65.047-145-145-145-145 65.047-145 145c0 4.418 3.582 8 8 8s8-3.582 8-8c0-71.131 57.869-129 129-129s129 57.869 129 129-57.869 129-129 129c-53.466 0-100.624-32.155-120.142-81.92z"/><path d="m236.13 120.1c4.412-.228 7.805-3.989 7.578-8.401-.229-4.412-3.993-7.814-8.402-7.577-47.83 2.466-85.296 41.946-85.296 89.879 0 49.626 40.373 90 89.998 90 49.232 0 90.002-39.94 90.002-90 0-28.729-13.88-55.997-37.175-72.874-3.161-2.29-7.712-2.019-10.542 1.02-.504.539 1.317-1.937-23.498 32.373-12.396-2.299-25.21-2.297-37.604.006l-18.081-24.698c9.79-5.635 21.004-9.109 33.02-9.728zm76.365 88.837-29.247-9.328c-1.88-12.468-5.761-24.399-11.576-35.589l17.99-24.874c19.067 17.308 28.194 43.74 22.833 69.791zm-55.507-38.48c5.988 11.234 9.694 23.351 11.023 36.068.22 2.093 1.304 4.161 3.156 5.55 1.528 1.151-.527.306 36.394 12.083-10.529 23.489-32.941 40.529-59.553 43.403 0-27.614.003-35.111-.005-35.661.032-3.226-1.895-6.286-5.078-7.531-11.68-4.569-22.164-11.866-30.507-21.204 1.594-11.492 5.156-22.467 10.615-32.708 11.173-2.226 22.783-2.226 33.955 0zm-48.654-6.409c-5.809 11.186-9.685 23.109-11.562 35.569l-7.538 2.418c-4.207 1.35-6.524 5.854-5.174 10.062 1.089 3.395 4.232 5.559 7.616 5.559 1.563 0 1.71-.148 9.807-2.745 8.598 9.329 19 16.889 30.527 22.188v30.462c-37.055-4.003-66-35.461-66-73.561 0-21.64 9.299-41.17 24.182-54.732z"/></g></svg>