<svg id="Layer_1" enable-background="new 0 0 480.063 480.063" height="512" viewBox="0 0 480.063 480.063" width="512" xmlns="http://www.w3.org/2000/svg"><path d="m471.976 234.894c-3.273-152.843-151.869-261.224-298.73-217.13-93.9 28.177-162.949 114.349-165.15 217.13-1.218 51.702 14.937 103.118 47.3 145.6 92.965 121.999 276.343 121.963 369.28 0 32.359-42.476 48.518-93.893 47.3-145.6z" fill="#cbe3fa"/><path d="m281.353 11.676c22.171 3.986 21.99 35.641-.214 39.44-107.048 18.312-193.103 111.465-193.103 228.888 0 45.352 13.084 88.189 36.181 124.471 9.543 14.991-8.83 32.073-23.057 21.425-58.618-43.874-94.87-114.317-93.064-191.006 3.042-142.026 132.494-248.524 273.257-223.218z" fill="#eef7ff"/><path d="m471.976 234.894c1.214 51.598-14.874 103.035-47.3 145.6-9.556-25.644-15.527-52.495-17.745-79.777-.346-4.259 1.027-8.485 3.81-11.727 17.829-20.764 38.441-38.97 61.235-54.096z" fill="#585966"/><path d="m246.202 417.497c25.282 10.55 48.979 24.534 70.424 41.558-49.35 17.266-103.781 17.283-153.18 0 21.445-17.023 45.142-31.008 70.424-41.558 3.944-1.646 8.389-1.646 12.332 0z" fill="#585966"/><path d="m73.142 300.718c-2.218 27.282-8.189 54.133-17.745 79.777-32.422-42.56-48.514-93.997-47.3-145.6 22.795 15.125 43.407 33.332 61.235 54.097 2.783 3.241 4.156 7.467 3.81 11.726z" fill="#6e6f80"/><path d="m173.246 17.764c-7.346 26.377-18.296 51.633-32.548 75.023-2.222 3.647-5.816 6.259-9.971 7.246-26.633 6.329-54.024 8.946-81.371 7.771 29.59-42.58 73.07-74.79 123.89-90.04z" fill="#6e6f80"/><path d="m430.716 107.804c-27.348 1.175-54.738-1.442-81.371-7.771-4.155-.987-7.749-3.599-9.971-7.246-14.252-23.39-25.202-48.646-32.548-75.023 50.82 15.25 94.3 47.46 123.89 90.04z" fill="#585966"/><path d="m340.956 266.026c.579 4.5-.778 9.051-3.755 12.475-25.029 28.795-56.198 51.295-90.979 65.987-3.951 1.669-8.421 1.669-12.372 0-34.781-14.692-65.95-37.192-90.979-65.987-2.976-3.424-4.333-7.975-3.755-12.475 4.789-37.243 16.475-73.239 34.479-106.196 2.228-4.078 6.133-6.99 10.678-7.957 36.792-7.83 74.79-7.823 111.527-.001 4.544.968 8.448 3.879 10.676 7.957 18.004 32.957 29.691 68.954 34.48 106.197z" fill="#585966"/><g><path d="m431.654 95.473c-30.617-40.531-74.133-70.852-122.53-85.375-6.01-1.809-11.688 3.75-10.007 9.808 7.674 27.566 19.148 53.844 34.133 78.192l-33.719 46.409c-40.799-9.002-83.636-8.603-124.249 1.209-2.127.514-3.951 1.877-5.047 3.772-21.037 36.386-34.223 75.91-39.276 117.546l-54.688 17.769c-8.075-9.487-16.78-18.535-25.935-26.95-3.252-2.99-8.313-2.777-11.304.476-2.99 3.253-2.776 8.314.477 11.304 9.18 8.438 17.883 17.546 25.905 27.109-1.569 22.531-5.759 44.745-12.487 66.263-48.462-73.471-50.142-170.917.693-247.055 27.136.746 53.939-2.078 80.258-8.45l15.371 21.157c1.565 2.155 4.005 3.298 6.479 3.298 6.436 0 10.34-7.37 6.466-12.703l-15.37-21.155c14.19-23.057 25.225-47.85 32.874-73.829 19.205-5.378 39.44-8.264 60.339-8.264 4.418 0 8-3.582 8-8s-3.582-8-8-8c-64.106 0-124.375 24.964-169.706 70.294-93.785 93.785-93.764 245.647 0 339.412 93.791 93.79 245.607 93.805 339.411 0 85.447-85.447 93.354-219.662 21.912-314.237zm-270.664-65.052c-7.208 21.397-16.885 41.863-28.876 61.041-21.903 5.467-44.314 8.347-66.845 8.599 24.902-31.036 57.88-55.32 95.721-69.64zm-96.529 348.524c9.055-25.474 14.684-51.975 16.754-78.925l54.413-17.68c26.156 30.524 59.299 54.607 96.409 70.053v57.205c-25.029 10.311-48.525 23.879-69.978 40.396-38.699-14.417-72.371-39.238-97.598-71.049zm116.32 77.089c18.412-13.079 38.275-23.951 59.255-32.421 9.201 3.717 18.282 7.938 27.035 12.571 3.906 2.066 8.747.576 10.813-3.329 2.067-3.905.577-8.746-3.328-10.813-8.598-4.55-17.498-8.72-26.519-12.439v-57.21c37.111-15.447 70.254-39.529 96.408-70.053 24.27 7.886 23.259 7.719 25.019 7.719 3.372 0 6.508-2.149 7.606-5.53 1.365-4.202-.935-8.715-5.136-10.081l-22.799-7.408c-2.928-24.046-8.67-47.702-17.098-70.393-1.538-4.142-6.144-6.253-10.284-4.714-4.143 1.538-6.253 6.143-4.714 10.285 8.18 22.025 13.695 45.009 16.408 68.368-25.132 29.774-57.314 53.134-93.411 67.805-36.096-14.671-68.279-38.032-93.411-67.806 4.511-38.941 16.53-75.95 35.756-110.101 38.911-8.849 79.86-8.589 118.652.784 3.245.783 6.727-.558 8.588-3.431l36.571-50.335c15.558 3.763 34.803 6.623 37.841 6.623 4.009 0 7.468-3.007 7.938-7.085.506-4.389-2.643-8.357-7.032-8.863-12.414-1.43-24.839-3.687-36.98-6.715-12.004-19.199-21.688-39.686-28.897-61.105 131.62 49.764 188.081 211.368 108.085 332.649-6.729-21.517-10.918-43.731-12.488-66.263 7.201-8.584 14.959-16.812 23.097-24.493 3.213-3.033 3.359-8.096.326-11.309-3.032-3.213-8.096-3.358-11.309-.326-9.389 8.862-18.3 18.415-26.486 28.393-1.276 1.556-1.92 3.535-1.802 5.544 1.697 28.834 7.46 57.2 17.127 84.393-56.597 71.368-149.125 100.625-234.831 77.089z"/></g></svg>